<svg width="359" height="180" viewBox="0 0 359 180" fill="none" xmlns="http://www.w3.org/2000/svg">
<g clip-path="url(#clip0_2243_68)">
<g clip-path="url(#clip1_2243_68)">
<path d="M131.862 64.1828C132.103 64.1013 132.355 64.0689 132.603 64.0873C132.852 64.1057 133.091 64.1746 133.309 64.2901C133.526 64.4056 133.717 64.5654 133.871 64.7604C134.025 64.9553 134.138 65.1817 134.204 65.4264C137.401 77.2084 142.304 86.0701 149.815 93.4566C152.988 90.6819 155.272 86.9368 156.368 82.6342C157.822 76.9255 157.096 70.811 154.271 64.9541C151.75 59.7257 148.024 56.6065 144.418 53.5896C139.87 49.7832 135.574 46.1872 133.949 38.4343C133.766 37.5747 133.204 36.9502 132.436 36.7559C131.556 36.5388 130.684 36.8836 129.84 37.7948C127.863 39.9269 124.284 47.026 121.722 55.2162C117.604 68.3738 118.323 76.6366 119.651 81.2524C121.37 87.2135 125.227 92.1785 130.242 95.0497C131.186 95.5925 132.173 96.0593 133.193 96.4462C137.825 98.192 142.652 97.9499 146.528 95.7959C138.868 88.0697 133.832 78.8346 130.527 66.6681C130.46 66.4229 130.442 66.1641 130.473 65.9064C130.504 65.6487 130.584 65.3972 130.708 65.1663C130.832 64.9354 130.998 64.7297 131.196 64.561C131.394 64.3922 131.62 64.2637 131.862 64.1828ZM154.193 97.3693C152.642 96.1095 151.185 94.8092 149.814 93.4605C148.931 94.233 147.987 94.9253 146.992 95.529C146.84 95.6215 146.684 95.7101 146.528 95.7959C148.182 97.4598 149.923 99.0313 151.742 100.503C151.933 100.665 152.155 100.784 152.395 100.854C152.636 100.924 152.89 100.943 153.143 100.909C153.395 100.876 153.642 100.791 153.867 100.66C154.093 100.529 154.293 100.354 154.456 100.145C154.62 99.9369 154.742 99.699 154.818 99.4456C154.893 99.1923 154.919 98.9286 154.895 98.6701C154.87 98.4116 154.796 98.1635 154.675 97.9402C154.555 97.7169 154.39 97.5224 154.193 97.3693Z" fill="#5AE4A7"/>
</g>
<g clip-path="url(#clip2_2243_68)">
<path d="M201.398 72.0018C201.182 71.8673 200.944 71.778 200.698 71.7391C200.453 71.7002 200.203 71.7124 199.965 71.775C199.727 71.8377 199.505 71.9495 199.31 72.1041C199.116 72.2587 198.954 72.453 198.833 72.6761C193.024 83.4131 186.222 90.917 177.22 96.3877C174.767 92.9603 173.4 88.7916 173.319 84.3525C173.211 78.4625 175.317 72.6767 179.408 67.622C183.059 63.1097 187.4 60.9265 191.601 58.8152C196.9 56.1512 201.905 53.6343 205.262 46.4594C205.637 45.6647 206.327 45.1854 207.119 45.1721C208.026 45.1623 208.795 45.6974 209.408 46.7777C210.845 49.3058 212.703 57.0357 213.322 65.595C214.318 79.346 211.727 87.2246 209.376 91.4137C206.339 96.823 201.447 100.773 195.908 102.42C194.865 102.732 193.798 102.96 192.716 103.104C187.807 103.742 183.163 102.402 179.884 99.4174C189.11 93.6502 196.126 85.8135 202.129 74.7268C202.25 74.5034 202.327 74.2556 202.356 73.9976C202.384 73.7396 202.364 73.4765 202.296 73.2234C202.228 72.9703 202.114 72.7321 201.96 72.5224C201.806 72.3128 201.615 72.1359 201.398 72.0018ZM172.062 99.1941C173.861 98.3229 175.577 97.3907 177.22 96.3916C177.902 97.3457 178.663 98.2359 179.494 99.0514C179.62 99.1762 179.752 99.2981 179.884 99.4174C177.893 100.658 175.838 101.79 173.73 102.806C173.508 102.92 173.264 102.985 173.014 102.998C172.764 103.011 172.513 102.971 172.274 102.881C172.036 102.79 171.815 102.651 171.626 102.472C171.436 102.293 171.281 102.077 171.17 101.836C171.059 101.596 170.994 101.336 170.979 101.072C170.964 100.808 170.998 100.546 171.081 100.3C171.164 100.054 171.294 99.8292 171.462 99.6394C171.63 99.4496 171.835 99.298 172.062 99.1941Z" fill="#5AE4A7"/>
</g>
<path d="M5.32 150.115V108.325H13.37V150.115C13.37 150.815 13.5333 151.492 13.86 152.145C14.2333 152.752 14.9333 153.055 15.96 153.055H17.08V160.475H15.12C12.46 160.475 10.43 159.962 9.03 158.935C7.63 157.908 6.65 156.602 6.09 155.015C5.57667 153.428 5.32 151.795 5.32 150.115ZM51.8257 158.095C49.399 159.075 47.1124 159.775 44.9657 160.195C42.819 160.615 40.789 160.825 38.8757 160.825C33.6024 160.825 29.6124 159.332 26.9057 156.345C24.199 153.358 22.8457 149.392 22.8457 144.445V140.245C22.8457 136.932 23.4524 134.062 24.6657 131.635C25.879 129.208 27.6057 127.318 29.8457 125.965C32.0857 124.612 34.7224 123.935 37.7557 123.935C40.229 123.935 42.539 124.448 44.6857 125.475C46.879 126.455 48.6524 128.018 50.0057 130.165C51.4057 132.265 52.1057 134.972 52.1057 138.285C52.1057 139.265 52.0357 140.315 51.8957 141.435C51.7557 142.508 51.5224 143.652 51.1957 144.865H30.6157C30.709 147.758 31.4324 149.928 32.7857 151.375C34.139 152.822 36.309 153.545 39.2957 153.545C40.8824 153.545 42.5157 153.358 44.1957 152.985C45.9224 152.612 47.6957 152.052 49.5157 151.305L51.8257 158.095ZM37.7557 130.725C35.609 130.725 33.929 131.425 32.7157 132.825C31.549 134.178 30.8724 136.138 30.6857 138.705H44.1257C44.1724 138.472 44.1957 138.262 44.1957 138.075C44.1957 137.842 44.1957 137.632 44.1957 137.445C44.1957 135.205 43.5657 133.525 42.3057 132.405C41.0457 131.285 39.529 130.725 37.7557 130.725ZM82.7296 158.935C81.5163 159.495 80.1163 159.938 78.5296 160.265C76.9429 160.638 75.3329 160.825 73.6996 160.825C70.9929 160.825 68.8229 160.265 67.1896 159.145C65.5563 158.025 64.3663 156.462 63.6196 154.455C62.9196 152.448 62.5696 150.162 62.5696 147.595V131.635H56.8296V124.635H62.5696V115.395H70.6196V124.635H81.6796V131.635H70.6196V147.595C70.6196 149.742 71.0163 151.235 71.8096 152.075C72.6496 152.868 73.8396 153.265 75.3796 153.265C76.1263 153.265 76.9196 153.195 77.7596 153.055C78.6463 152.868 79.6263 152.565 80.6996 152.145L82.7296 158.935ZM96.2719 112.525V113.855C96.2719 117.262 95.7819 120.505 94.8019 123.585C93.8219 126.665 92.1652 130.025 89.8319 133.665L84.7919 130.935C85.9119 128.648 86.7285 126.618 87.2419 124.845C87.7552 123.072 88.0819 121.228 88.2219 119.315C88.3619 117.402 88.4319 115.138 88.4319 112.525H96.2719ZM112.13 153.825C113.857 153.825 115.28 153.545 116.4 152.985C117.52 152.378 118.08 151.492 118.08 150.325C118.08 149.298 117.707 148.505 116.96 147.945C116.26 147.338 114.977 146.802 113.11 146.335L109.12 145.285C106.04 144.492 103.753 143.162 102.26 141.295C100.813 139.428 100.09 137.212 100.09 134.645C100.09 131.612 101.14 129.068 103.24 127.015C105.34 124.962 108.583 123.935 112.97 123.935C114.743 123.935 116.61 124.145 118.57 124.565C120.53 124.985 122.583 125.662 124.73 126.595L122.42 133.455C120.46 132.522 118.687 131.868 117.1 131.495C115.513 131.122 114.113 130.935 112.9 130.935C109.587 130.935 107.93 132.055 107.93 134.295C107.93 135.182 108.21 135.882 108.77 136.395C109.377 136.908 110.473 137.375 112.06 137.795L116.05 138.845C119.457 139.732 121.93 141.085 123.47 142.905C125.057 144.725 125.85 147.012 125.85 149.765C125.85 153.032 124.73 155.692 122.49 157.745C120.297 159.798 116.82 160.825 112.06 160.825C108 160.825 103.73 159.892 99.2502 158.025L101.42 151.375C103.613 152.262 105.597 152.892 107.37 153.265C109.143 153.638 110.73 153.825 112.13 153.825Z" fill="white"/>
<path d="M157.296 101.288C157.338 100.459 157.888 99.742 158.678 99.4867L168.01 96.4703C169.302 96.0528 170.625 97.0159 170.625 98.3733V168.625C170.625 169.73 169.73 170.625 168.625 170.625H155.855C154.71 170.625 153.799 169.666 153.857 168.523L157.296 101.288Z" fill="#9A634E"/>
<path d="M224.375 158.07C224.375 161.85 222.882 164.79 219.895 166.89C216.955 169.037 212.848 170.11 207.575 170.11C205.102 170.11 202.488 169.83 199.735 169.27C196.982 168.71 194.438 167.777 192.105 166.47L194.415 160.1C196.655 161.22 198.872 162.013 201.065 162.48C203.258 162.993 205.405 163.25 207.505 163.25C210.445 163.25 212.685 162.853 214.225 162.06C215.765 161.267 216.535 160.217 216.535 158.91C216.535 156.903 215.345 155.9 212.965 155.9H204.565C202.278 155.9 200.435 155.527 199.035 154.78C197.635 154.033 196.608 153.077 195.955 151.91C195.302 150.697 194.975 149.437 194.975 148.13C194.975 146.777 195.255 145.517 195.815 144.35C196.422 143.137 197.238 142.017 198.265 140.99C196.585 139.963 195.232 138.587 194.205 136.86C193.225 135.133 192.735 133.057 192.735 130.63C192.735 127.877 193.318 125.59 194.485 123.77C195.652 121.95 197.238 120.597 199.245 119.71C201.298 118.777 203.562 118.31 206.035 118.31H207.225C208.158 118.31 209.068 118.38 209.955 118.52C210.842 118.613 211.682 118.777 212.475 119.01H225.145V125.87L218.145 124.75C218.845 125.497 219.382 126.43 219.755 127.55C220.175 128.623 220.385 129.953 220.385 131.54C220.385 133.92 219.778 135.973 218.565 137.7C217.398 139.38 215.812 140.687 213.805 141.62C211.845 142.507 209.652 142.95 207.225 142.95H206.035C205.102 142.95 204.215 142.88 203.375 142.74C202.862 143.3 202.488 143.883 202.255 144.49C202.022 145.05 201.905 145.587 201.905 146.1C201.905 147.733 202.955 148.55 205.055 148.55H213.595C216.815 148.55 219.405 149.39 221.365 151.07C223.372 152.703 224.375 155.037 224.375 158.07ZM207.225 136.37C208.672 136.37 209.932 135.88 211.005 134.9C212.125 133.92 212.685 132.497 212.685 130.63C212.685 128.763 212.125 127.34 211.005 126.36C209.932 125.38 208.672 124.89 207.225 124.89H206.035C204.542 124.89 203.235 125.38 202.115 126.36C201.042 127.34 200.505 128.763 200.505 130.63C200.505 132.497 201.042 133.92 202.115 134.9C203.235 135.88 204.542 136.37 206.035 136.37H207.225ZM252.113 126.36C249.919 126.36 247.819 126.71 245.813 127.41C243.853 128.063 241.963 129.137 240.143 130.63V154.5H232.093V119.01H239.723V124.47C242.103 122.23 244.226 120.643 246.093 119.71C247.959 118.777 249.966 118.31 252.113 118.31V126.36ZM288.213 134.62V138.82C288.213 143.767 286.859 147.733 284.153 150.72C281.446 153.707 277.619 155.2 272.673 155.2C267.726 155.2 263.899 153.707 261.193 150.72C258.486 147.733 257.133 143.767 257.133 138.82V134.62C257.133 129.673 258.463 125.73 261.123 122.79C263.829 119.803 267.679 118.31 272.673 118.31C277.666 118.31 281.493 119.803 284.153 122.79C286.859 125.73 288.213 129.673 288.213 134.62ZM279.953 134.62C279.953 131.773 279.323 129.557 278.063 127.97C276.803 126.337 275.006 125.52 272.673 125.52C270.339 125.52 268.543 126.337 267.283 127.97C266.023 129.557 265.393 131.773 265.393 134.62V138.82C265.393 141.667 266.023 143.907 267.283 145.54C268.543 147.173 270.339 147.99 272.673 147.99C275.006 147.99 276.803 147.173 278.063 145.54C279.323 143.907 279.953 141.667 279.953 138.82V134.62ZM340.725 119.01L331.625 154.5H322.875L316.995 127.83L310.765 154.5H302.015L292.915 119.01H301.175L304.605 133.08L306.985 145.89L313.005 119.01H321.125L327.355 146.17L329.595 133.15L332.955 119.01H340.725Z" fill="white"/>
<g clip-path="url(#clip3_2243_68)">
<path d="M175.049 46.0416C175.267 46.1177 175.46 46.2498 175.617 46.4301C175.774 46.6105 175.892 46.8356 175.963 47.0927C176.035 47.3498 176.06 47.6338 176.035 47.9285C176.011 48.2233 175.938 48.5229 175.822 48.8103C170.202 62.6451 167.678 74.681 167.906 86.9479C171.904 86.2513 175.939 84.0076 179.533 80.4321C184.301 75.688 187.853 69.1172 189.805 61.4337C191.547 54.5747 191.073 49.0328 190.614 43.6719C190.034 36.9083 189.487 30.5193 193.511 21.7275C193.955 20.7509 193.985 19.7614 193.591 19.0666C193.135 18.2757 192.313 18.051 191.135 18.4085C188.377 19.2446 181.241 23.9886 174.075 30.4835C162.561 40.9165 157.583 49.6253 155.433 55.0951C152.659 62.1606 152.001 69.629 153.518 75.7644C153.802 76.9219 154.165 78.0309 154.603 79.0822C156.604 83.8462 160.053 86.7546 164.119 87.1359C164.013 74.4326 166.694 61.9374 172.494 47.6486C172.611 47.3607 172.77 47.0907 172.962 46.854C173.154 46.6173 173.374 46.4186 173.612 46.2694C173.849 46.1201 174.098 46.0231 174.345 45.984C174.591 45.945 174.831 45.9645 175.049 46.0416ZM168.299 93.7063C168.076 91.4377 167.944 89.1906 167.903 86.9511C166.79 87.1453 165.689 87.2193 164.611 87.1721C164.447 87.1655 164.282 87.152 164.119 87.1359C164.145 89.8743 164.291 92.5774 164.556 95.2321C164.579 95.5179 164.651 95.7818 164.768 96.0083C164.886 96.2348 165.047 96.4193 165.241 96.551C165.435 96.6828 165.659 96.7591 165.9 96.7755C166.14 96.7919 166.392 96.7481 166.642 96.6466C166.891 96.5451 167.132 96.388 167.351 96.1845C167.57 95.981 167.762 95.7352 167.917 95.4614C168.071 95.1877 168.184 94.8915 168.25 94.5904C168.316 94.2892 168.332 93.9878 168.299 93.7063Z" fill="#5AE4A7"/>
</g>
</g>
<defs>
<clipPath id="clip0_2243_68">
<rect width="358.125" height="180" fill="white"/>
</clipPath>
<clipPath id="clip1_2243_68">
<rect width="60" height="63.75" fill="white" transform="translate(112.5 37.5)"/>
</clipPath>
<clipPath id="clip2_2243_68">
<rect width="60" height="63.75" fill="white" transform="matrix(-0.973438 -0.228952 -0.228952 0.973438 227.751 52.7151)"/>
</clipPath>
<clipPath id="clip3_2243_68">
<rect width="60.7857" height="90.9999" fill="white" transform="translate(181.875) rotate(37.225)"/>
</clipPath>
</defs>
</svg>
